HIERARCHY
ROOT Hips
{
 OFFSET 0.000000 0.000000 0.000000
 CHANNELS 6 Xposition Yposition Zposition Yrotation Xrotation Zrotation
 JOINT Chest
 {
  OFFSET 0.000000 10.383400 0.001500
  CHANNELS 3 Yrotation Xrotation Zrotation
  JOINT Chest2
  {
   OFFSET 0.000000 10.418200 -0.003100
   CHANNELS 3 Yrotation Xrotation Zrotation
   JOINT Chest3
   {
    OFFSET 0.000000 10.375100 0.000000
    CHANNELS 3 Yrotation Xrotation Zrotation
    JOINT Chest4
    {
     OFFSET 0.000000 10.364600 0.000000
     CHANNELS 3 Yrotation Xrotation Zrotation
     JOINT Neck
     {
      OFFSET 0.000000 15.642200 0.000000
      CHANNELS 3 Yrotation Xrotation Zrotation
      JOINT Head
      {
       OFFSET 0.000000 9.697300 -0.006500
       CHANNELS 3 Yrotation Xrotation Zrotation
       End Site
       {
        OFFSET 0.000000 18.492200 -0.003400
       }
      }
     }
     JOINT RightCollar
     {
      OFFSET -3.166800 10.349300 0.000000
      CHANNELS 3 Yrotation Xrotation Zrotation
      JOINT RightShoulder
      {
       OFFSET -14.729700 0.000000 0.000000
       CHANNELS 3 Yrotation Xrotation Zrotation
       JOINT RightElbow
       {
        OFFSET 0.000000 -32.224300 0.000000
        CHANNELS 3 Yrotation Xrotation Zrotation
        JOINT RightWrist
        {
         OFFSET 0.000000 -26.084100 0.000000
         CHANNELS 3 Yrotation Xrotation Zrotation
         End Site
         {
          OFFSET 0.000000 -19.319400 0.000000
         }
        }
       }
      }
     }
     JOINT LeftCollar
     {
      OFFSET 3.166800 10.349300 0.000000
      CHANNELS 3 Yrotation Xrotation Zrotation
      JOINT LeftShoulder
      {
       OFFSET 14.729700 0.000000 0.000000
       CHANNELS 3 Yrotation Xrotation Zrotation
       JOINT LeftElbow
       {
        OFFSET 0.000000 -32.224300 0.000000
        CHANNELS 3 Yrotation Xrotation Zrotation
        JOINT LeftWrist
        {
         OFFSET 0.000000 -26.084100 0.000000
         CHANNELS 3 Yrotation Xrotation Zrotation
         End Site
         {
          OFFSET 0.000000 -19.319400 0.000000
         }
        }
       }
      }
     }
    }
   }
  }
 }
 JOINT RightHip
 {
  OFFSET -8.428900 -0.007500 -0.000800
  CHANNELS 3 Yrotation Xrotation Zrotation
  JOINT RightKnee
  {
   OFFSET 0.000000 -43.834600 0.000700
   CHANNELS 3 Yrotation Xrotation Zrotation
   JOINT RightAnkle
   {
    OFFSET 0.000000 -42.757000 0.001200
    CHANNELS 3 Yrotation Xrotation Zrotation
    JOINT RightToe
    {
     OFFSET 0.000000 -6.946900 15.649300
     CHANNELS 3 Yrotation Xrotation Zrotation
     End Site
     {
      OFFSET 0.000000 -1.580800 6.825800
     }
    }
   }
  }
 }
 JOINT LeftHip
 {
  OFFSET 8.428900 -0.007500 -0.000800
  CHANNELS 3 Yrotation Xrotation Zrotation
  JOINT LeftKnee
  {
   OFFSET 0.000000 -43.834600 0.000700
   CHANNELS 3 Yrotation Xrotation Zrotation
   JOINT LeftAnkle
   {
    OFFSET 0.000000 -42.757000 0.001200
    CHANNELS 3 Yrotation Xrotation Zrotation
    JOINT LeftToe
    {
     OFFSET 0.000000 -6.946900 15.649300
     CHANNELS 3 Yrotation Xrotation Zrotation
     End Site
     {
      OFFSET 0.000000 -1.580800 6.825800
     }
    }
   }
  }
 }
}
MOTION
Frames: 16
Frame Time: 0.008333
124.564918 126.515860 30.473341 -14.567766 -19.710745 -1.425515 -1.292341 23.869640 2.696309 -0.240200 3.588353 0.466045 -0.372622 5.773962 0.743469 -0.990566 19.875156 2.472626 1.693905 5.982808 -1.928975 4.449047 -24.574502 -4.795644 7.158068 -15.314532 -10.632247 2.803137 -54.957540 -25.122726 -80.305409 -10.318230 49.357584 -21.550547 -6.460340 20.434363 -8.604708 -18.524646 4.957453 2.640084 -54.641200 23.598413 72.580479 -11.893304 -48.230682 27.352374 -12.660138 -23.749707 -1.653179 -50.058292 -1.820971 -20.478904 73.220975 -18.324300 0.545484 6.294357 4.610236 0.170067 -0.261047 0.075274 -4.035614 -42.095056 -10.520195 0.154023 68.285304 -0.931754 -11.607393 2.368699 0.387669 0.015116 -0.030301 0.006707
124.549096 126.498350 30.501590 -14.535119 -19.541512 -1.515916 -1.362715 23.928536 2.684296 -0.247362 3.590353 0.464012 -0.384150 5.776978 0.740050 -1.032692 19.879385 2.454405 1.663060 5.898465 -1.833781 4.342367 -24.738525 -4.593979 7.204638 -15.384585 -10.638452 2.801999 -55.001177 -25.096428 -80.580405 -10.217232 49.438553 -21.660265 -6.532230 20.364222 -8.588257 -18.534069 4.987944 3.158399 -54.701365 23.360998 72.636683 -12.009900 -48.490653 27.273873 -12.530646 -23.827314 -1.500689 -50.249706 -1.846316 -20.830938 73.357943 -18.665279 0.658389 6.308094 4.831473 0.219730 -0.247199 0.097238 -4.054033 -42.153471 -10.474284 0.213102 68.273072 -0.849728 -11.605643 2.103244 0.601422 0.009570 -0.029561 0.004246
124.528652 126.478344 30.516165 -14.508121 -19.329600 -1.662638 -1.364185 23.951771 2.759019 -0.255685 3.603689 0.465107 -0.397446 5.797186 0.741365 -1.076817 19.907280 2.448075 1.678146 5.797219 -1.772894 4.347597 -24.928928 -4.487154 7.211781 -15.524087 -10.668761 2.812878 -54.986727 -25.027159 -80.883773 -10.157073 49.596690 -21.783561 -6.679514 20.281780 -8.628055 -18.638505 5.016242 3.700211 -54.727824 23.107007 72.708684 -12.071108 -48.762876 27.216973 -12.378960 -23.929043 -1.575463 -50.402449 -1.660046 -20.466625 73.439882 -18.379863 0.726578 6.175169 5.030278 0.187227 -0.172863 0.082908 -4.173108 -42.269842 -10.309255 0.146292 68.267020 -0.906402 -11.545580 1.828189 0.802166 0.009832 -0.033165 0.004362
124.510730 126.457840 30.525022 -14.459176 -19.106595 -1.821386 -1.330721 23.970941 2.873129 -0.262577 3.625727 0.469060 -0.408288 5.830490 0.747164 -1.108504 19.953346 2.455530 1.725692 5.680673 -1.743965 4.436628 -25.143965 -4.463503 7.145047 -15.719445 -10.702737 2.813142 -54.928615 -24.907184 -81.172592 -10.174605 49.816306 -21.898280 -6.876840 20.196456 -8.747639 -18.811327 5.056672 4.229894 -54.718125 22.862988 72.818793 -12.067053 -49.057739 27.205613 -12.248037 -24.027259 -1.786907 -50.488646 -1.410432 -19.589041 73.457614 -17.605018 0.763059 5.918219 5.170397 0.099757 -0.073189 0.044230 -4.368089 -42.409303 -10.105363 0.104734 68.252324 -0.961700 -11.485922 1.572003 0.988473 0.014017 -0.051255 0.006217
124.505715 126.439050 30.539120 -14.390769 -18.915600 -1.913928 -1.293107 24.020528 2.945786 -0.266294 3.651223 0.475206 -0.413817 5.868900 0.756581 -1.119179 20.006394 2.476645 1.791629 5.559736 -1.740219 4.577039 -25.364650 -4.501266 6.994077 -15.934916 -10.726758 2.757990 -54.854150 -24.715445 -81.399891 -10.291023 50.073640 -21.982660 -7.088309 20.115222 -8.955557 -19.007171 5.112050 4.740589 -54.680045 22.628421 72.961557 -12.016958 -49.367112 27.239568 -12.178161 -24.084579 -1.930393 -50.488069 -1.310373 -18.504827 73.420323 -16.562744 0.740194 5.575603 5.211451 0.021069 -0.000916 0.009352 -4.554957 -42.497477 -9.988688 0.154125 68.186850 -0.937161 -11.457006 1.295775 1.155838 0.018980 -0.024302 0.008422
124.510856 126.422422 30.559897 -14.288755 -18.764874 -1.949395 -1.276854 24.094222 2.980979 -0.266974 3.674416 0.482848 -0.414449 5.903979 0.768563 -1.111823 20.054132 2.509514 1.869095 5.452729 -1.757960 4.751837 -25.557334 -4.588108 6.779753 -16.125304 -10.737039 2.615598 -54.792193 -24.451527 -81.529471 -10.502647 50.337579 -22.013028 -7.266535 20.038564 -9.222766 -19.178352 5.169042 5.217788 -54.626876 22.398253 73.127323 -11.942447 -49.664108 27.291798 -12.189904 -24.079317 -1.927142 -50.414973 -1.419158 -17.477377 73.333608 -15.451740 0.650800 5.179715 5.134220 -0.021968 0.015085 -0.009754 -4.757385 -42.547365 -9.923023 -0.030571 68.093274 -1.196681 -11.326265 1.071252 1.348613 0.011429 -0.017161 0.005072
124.521036 126.405244 30.577840 -14.189343 -18.606495 -1.948035 -1.255729 24.130353 3.009559 -0.266137 3.690515 0.491040 -0.412633 5.928376 0.781513 -1.096871 20.086247 2.549429 1.954773 5.377767 -1.794362 4.951356 -25.688604 -4.715019 6.537136 -16.251630 -10.737477 2.380092 -54.761908 -24.133569 -81.551394 -10.782968 50.581931 -21.982157 -7.373378 19.964198 -9.498124 -19.286997 5.210449 5.636224 -54.567878 22.170046 73.312977 -11.863082 -49.926286 27.347153 -12.275055 -24.010593 -1.773817 -50.339476 -1.674490 -16.642527 73.211496 -14.408229 0.518493 4.724154 4.942934 -0.053145 -0.002159 -0.023591 -4.913137 -42.607049 -9.931727 -0.126780 67.987790 -1.343251 -11.207929 0.869133 1.512199 0.007858 -0.018328 0.003487
124.531070 126.387546 30.591459 -14.098682 -18.437791 -1.930224 -1.229545 24.122414 3.048755 -0.264999 3.696858 0.498740 -0.410417 5.937879 0.793785 -1.082694 20.097186 2.590661 2.041062 5.343349 -1.842976 5.155669 -25.743549 -4.863750 6.294621 -16.296357 -10.732161 2.072923 -54.762200 -23.795155 -81.490233 -11.088180 50.807605 -21.902891 -7.396197 19.891589 -9.746798 -19.316948 5.228838 5.974315 -54.506739 21.946533 73.516182 -11.789064 -50.139501 27.416288 -12.408655 -23.885884 -1.592729 -50.274395 -1.941196 -16.005788 73.057292 -13.513924 0.328781 4.231074 4.633015 -0.062143 -0.044235 -0.027566 -5.018060 -42.685334 -9.977402 -0.198534 67.889386 -1.440691 -11.119197 0.688479 1.654344 0.010471 -0.034310 0.004645
124.541095 126.370314 30.603815 -14.033551 -18.275408 -1.880691 -1.195114 24.090299 3.080593 -0.263687 3.693970 0.504992 -0.408131 5.933435 0.803898 -1.070671 20.088599 2.627740 2.115585 5.344027 -1.894310 5.334692 -25.733770 -5.008528 6.068725 -16.270355 -10.722445 1.740551 -54.774043 -23.488854 -81.391688 -11.362250 51.026059 -21.791294 -7.349453 19.833411 -9.954715 -19.273752 5.228681 6.234885 -54.453482 21.719984 73.722610 -11.717114 -50.295419 27.509218 -12.562116 -23.725582 -1.507136 -50.210711 -2.106732 -15.511774 72.875521 -12.824957 0.083046 3.703409 4.224507 -0.043915 -0.091729 -0.019464 -5.080191 -42.744731 -10.075901 -0.203019 67.771608 -1.435135 -11.059124 0.483909 1.755287 0.005357 -0.025424 0.002377
124.550379 126.353409 30.613678 -13.995442 -18.113975 -1.802777 -1.161500 24.039446 3.099542 -0.262261 3.685819 0.509171 -0.405772 5.921097 0.810744 -1.060707 20.069280 2.655698 2.169705 5.364691 -1.939463 5.467265 -25.688628 -5.127801 5.876258 -16.207990 -10.714725 1.441358 -54.773690 -23.268822 -81.311341 -11.556180 51.245820 -21.670999 -7.260166 19.802312 -10.110153 -19.184026 5.216871 6.447027 -54.421317 21.472389 73.909023 -11.640509 -50.397702 27.620637 -12.710509 -23.551813 -1.609168 -50.157174 -2.095240 -15.137653 72.670066 -12.387336 -0.182788 3.174125 3.753754 -0.007887 -0.159496 -0.003486 -5.092871 -42.804408 -10.202133 -0.138509 67.648893 -1.352066 -11.061204 0.288309 1.830280 -0.000890 -0.019878 -0.000395
124.551913 126.337862 30.621142 -13.980246 -17.965434 -1.737175 -1.130916 23.993577 3.136181 -0.261210 3.677435 0.511378 -0.404089 5.908394 0.814490 -1.054611 20.050038 2.672661 2.147152 5.340601 -1.990478 5.596839 -25.586230 -5.198210 5.738514 -16.143757 -10.719575 1.228258 -54.741717 -23.178671 -81.302890 -11.641750 51.474554 -21.571490 -7.157056 19.792695 -10.198838 -19.082951 5.191145 6.636646 -54.414762 21.197616 74.062273 -11.556307 -50.456812 27.732028 -12.836410 -23.379730 -1.920596 -50.108019 -1.875722 -14.917635 72.455834 -12.226985 -0.435045 2.607013 3.259303 0.039027 -0.193757 0.017278 -5.103375 -42.869152 -10.287771 -0.099906 67.556030 -1.300916 -11.076132 0.094171 1.889059 -0.005361 -0.022916 -0.002379
124.548688 126.324212 30.628424 -13.993155 -17.839626 -1.668834 -1.115001 23.967948 3.166601 -0.261037 3.671784 0.512168 -0.403858 5.899852 0.815936 -1.054145 20.037314 2.679832 2.191983 5.391605 -2.012897 5.594104 -25.557386 -5.259755 5.669017 -16.096500 -10.742312 1.131455 -54.664886 -23.240961 -81.391108 -11.617403 51.711959 -21.505869 -7.072237 19.792330 -10.214300 -18.994872 5.143128 6.804566 -54.428608 20.916020 74.187905 -11.464410 -50.486589 27.817231 -12.928696 -23.219690 -2.329057 -50.055515 -1.551987 -14.895958 72.244158 -12.335315 -0.626616 2.034020 2.781093 0.079125 -0.210209 0.035013 -5.095258 -42.921207 -10.369618 -0.106743 67.478476 -1.285840 -11.056561 -0.100198 1.926267 -0.006842 -0.028143 -0.003036
124.542503 126.312360 30.635393 -14.023486 -17.734341 -1.599687 -1.120464 23.960420 3.186000 -0.262140 3.669007 0.512596 -0.405664 5.895646 0.816638 -1.060538 20.030919 2.682567 2.197905 5.445234 -2.021555 5.561770 -25.531431 -5.301686 5.664572 -16.068103 -10.783455 1.145684 -54.538394 -23.441322 -81.566000 -11.519044 51.956623 -21.473194 -7.025434 19.786779 -10.164811 -18.924531 5.065973 6.934868 -54.452625 20.663191 74.296442 -11.368509 -50.498418 27.864421 -12.984684 -23.071276 -2.761144 -50.005160 -1.203726 -15.085906 72.046507 -12.679206 -0.723451 1.474510 2.349497 0.102430 -0.209891 0.045322 -5.070467 -42.962170 -10.446522 -0.124551 67.413465 -1.286493 -11.014030 -0.288002 1.960750 -0.006545 -0.034825 -0.002903
124.534290 126.302170 30.641714 -14.056618 -17.646866 -1.538816 -1.142280 23.964414 3.201022 -0.246673 3.624565 0.474416 -0.423254 5.936609 0.858644 -1.072738 20.027009 2.687405 2.162894 5.478192 -2.031722 5.493518 -25.472059 -5.300085 5.707241 -16.047591 -10.839628 1.226826 -54.369402 -23.727590 -81.797076 -11.397094 52.210599 -21.470883 -7.023090 19.761177 -10.073460 -18.860746 4.962584 7.026893 -54.477473 20.454563 74.389910 -11.282245 -50.505135 27.888182 -13.012056 -22.924728 -3.181596 -49.963600 -0.874928 -15.462747 71.872546 -13.207360 -0.712306 0.953026 1.990145 0.103305 -0.198538 0.045717 -5.040372 -42.993769 -10.528583 -0.267345 67.355709 -1.382341 -10.910537 -0.469703 1.983149 -0.000031 -0.040203 -0.000014
124.526770 126.293473 30.647773 -14.081620 -17.575427 -1.483146 -1.158980 23.935852 3.181305 -0.274072 3.683601 0.530500 -0.404800 5.875860 0.803072 -1.091227 20.061206 2.738426 2.110340 5.519390 -2.029699 5.382378 -25.399576 -5.263569 5.772736 -16.026541 -10.901467 1.314725 -54.175752 -24.034591 -82.041504 -11.282506 52.470097 -21.491390 -7.069313 19.697997 -9.966506 -18.793330 4.845592 7.091400 -54.495403 20.288973 74.469568 -11.216158 -50.527851 27.910051 -13.032708 -22.759269 -3.553490 -49.936815 -0.607059 -15.956006 71.731593 -13.837302 -0.614582 0.488632 1.719233 0.085227 -0.179961 0.037728 -5.009675 -43.015463 -10.591687 -0.312375 67.300442 -1.418011 -10.861669 -0.631860 2.039898 0.002460 -0.044315 0.001091
124.519594 126.286250 30.653552 -14.093419 -17.519970 -1.443128 -1.204778 23.966921 3.204909 -0.278184 3.683555 0.534064 -0.411331 5.875667 0.808638 -1.106350 20.039574 2.730467 2.048642 5.569288 -2.013782 5.244472 -25.312579 -5.193142 5.839287 -16.004120 -10.957867 1.357906 -53.979822 -24.306528 -82.244460 -11.169094 52.732936 -21.516800 -7.178247 19.578270 -9.863049 -18.717670 4.727160 7.135949 -54.499674 20.168922 74.542690 -11.165325 -50.595090 27.942165 -13.074421 -22.548616 -3.856079 -49.925519 -0.409110 -16.448235 71.630695 -14.443210 -0.473690 0.102680 1.542053 0.052093 -0.158808 0.023071 -4.988640 -43.029735 -10.639130 -0.318815 67.251762 -1.427690 -10.830794 -0.770551 2.112511 0.005953 -0.053103 0.002640
